<svg width="50" height="58" viewBox="0 0 50 58" fill="none" xmlns="http://www.w3.org/2000/svg">
<path d="M11.6871 20.3208C12.2024 20.3208 12.6201 19.9035 12.6201 19.3889C12.6201 18.8742 12.2024 18.4569 11.6871 18.4569C11.1718 18.4569 10.7541 18.8742 10.7541 19.3889C10.7541 19.9035 11.1718 20.3208 11.6871 20.3208Z" fill="#FF0266"/>
<path d="M49.2871 23.8938L41.4817 21.2211V18.6629C41.4817 9.64102 34.1337 2.30167 25.1011 2.30167H22.3619C21.5626 2.30167 20.7773 2.36211 20.0082 2.47315C18.7558 0.930508 15.8505 1.68953 13.7107 2.52094C11.2769 3.46621 8.7086 0 8.7086 0C7.23097 3.87384 9.62122 5.79389 11.2853 6.62249C8.02749 9.61501 5.98132 13.9042 5.98132 18.6629V20.5717L0.224193 27.9194C-0.0248927 28.2371 -0.0699258 28.6679 0.106686 29.0313C0.284002 29.3939 0.652002 29.6237 1.05589 29.6237H6.08405C6.10938 30.2647 6.11923 30.9049 6.12838 31.5311C6.21844 37.3447 6.31203 43.3522 18.8768 43.6671V49.5186L17.2915 50.0626C16.9791 50.1694 16.7349 50.4168 16.6315 50.7309L14.6965 56.6169C14.5143 57.17 14.8161 57.7653 15.3699 57.9473C15.479 57.9831 15.5894 58 15.6992 58C16.1432 58 16.5562 57.7182 16.7019 57.274L18.4736 51.8856L41.1538 44.1035L42.3099 57.0386C42.3613 57.6184 42.8728 58.0429 43.4554 57.9951C44.0352 57.9431 44.4644 57.4314 44.4124 56.8516L43.1374 42.5763C43.1085 42.2538 42.9326 41.9621 42.6603 41.7857C42.3873 41.6093 42.0489 41.5671 41.7428 41.6733L41.481 41.7632V26.6628L47.6301 28.7614C47.7412 28.7994 47.8566 28.8183 47.9713 28.8183C48.1318 28.8183 48.2915 28.7818 48.4378 28.7101C48.689 28.5864 48.8811 28.3671 48.9712 28.1022L49.9436 25.2298C50.1308 24.6795 49.8367 24.0829 49.2871 23.8938ZM39.3708 42.4864L20.9884 48.794V42.6255C20.9884 42.0429 20.5156 41.5713 19.933 41.5713C10.3558 41.5713 8.68468 38.6582 8.34131 34.3241H11.6104C12.193 34.3241 12.6658 33.8525 12.6658 33.2699C12.6658 32.6872 12.193 32.2157 11.6104 32.2157H8.25195C8.24772 31.9795 8.2435 31.7413 8.23998 31.4988C8.22521 30.524 8.20902 29.5169 8.13796 28.4971C8.09996 27.9447 7.63978 27.516 7.08532 27.516H3.22237L7.86847 21.5865C8.01341 21.401 8.09222 21.1726 8.09222 20.9371V18.665C8.09222 10.8056 14.4939 4.41218 22.3619 4.41218H25.1011C32.9699 4.41218 39.3708 10.8063 39.3708 18.665V20.5L34.6171 18.8716C34.4503 18.7121 34.2779 18.556 34.0795 18.4239C33.2809 17.8947 32.3429 17.7007 31.3754 17.8476L20.7492 14.2591C20.6514 14.2261 20.55 14.2078 20.4466 14.2043L15.1806 14.0258C14.7282 14.0159 14.294 14.3013 14.1449 14.7419C13.9957 15.1826 14.1533 15.6689 14.5333 15.9388L18.8276 18.9897C18.9113 19.0494 19.0035 19.0965 19.1013 19.1295L26.9243 21.7706C26.8384 21.9808 26.7561 22.1937 26.6878 22.4151C26.5147 22.971 26.8258 23.5621 27.3823 23.735C27.9403 23.9072 28.5307 23.5965 28.7038 23.0413C29.1632 21.564 30.1082 20.4445 31.2326 20.046C31.6703 19.89 32.3183 19.7866 32.9122 20.1802C33.7889 20.7628 34.2758 22.3146 34.247 24.4385C34.2245 26.1821 33.5405 28.377 32.4365 29.0313C32.2564 29.1381 31.7069 29.4635 30.6331 28.8963C30.1181 28.6244 29.4799 28.8211 29.2068 29.3356C28.9345 29.85 29.1316 30.4882 29.6466 30.7602C30.4375 31.1776 31.1397 31.3315 31.7456 31.3315C32.4823 31.3315 33.0768 31.1031 33.5145 30.8445C35.3038 29.784 36.2087 27.1154 36.3417 24.9101L39.3722 25.9439V42.4864H39.3708ZM28.0128 19.9117L19.9238 17.1807L18.6158 16.2509L20.22 16.3057L28.7002 19.1689C28.454 19.3917 28.2281 19.6447 28.0128 19.9117ZM47.3113 26.4246L36.2565 22.652C36.2122 22.297 36.1447 21.9442 36.0602 21.5935L47.6083 25.5482L47.3113 26.4246Z" fill="#FF0266"/>
</svg>
