<svg width="59" height="47" viewBox="0 0 59 47" fill="none" xmlns="http://www.w3.org/2000/svg">
<path d="M29.5397 0.00032196C29.8492 0.00693129 30.138 0.109031 30.4155 0.29866L58.4405 22.3298C59.0853 22.8454 59.1768 23.7969 58.694 24.4182C58.2182 25.0304 57.2062 25.1285 56.5968 24.6477L29.4936 3.35088L2.3905 24.6477C1.78112 25.1285 0.796877 25.0267 0.316285 24.4182C-0.160701 23.8141 -0.109415 22.8107 0.546754 22.3298L11.0561 14.0681V1.46906C11.0562 1.07954 11.2116 0.705961 11.4882 0.430527C11.7648 0.155093 12.14 0.000360907 12.5311 0.00032196H18.4311C18.8223 0.000360907 19.1975 0.155093 19.4741 0.430527C19.7507 0.705961 19.9061 1.07954 19.9061 1.46906V7.11453L28.5718 0.29866C28.9 0.0833205 29.2303 -0.00610378 29.5397 0.00032196ZM16.9561 2.9378H14.0061V11.7502L16.9561 9.43239V2.9378ZM47.9312 19.7595L50.8812 22.0773V45.5313C50.8811 45.9208 50.7257 46.2944 50.4491 46.5698C50.1725 46.8452 49.7973 47 49.4062 47H36.8686C36.4775 47 36.1023 46.8452 35.8257 46.5698C35.5491 46.2944 35.3937 45.9208 35.3936 45.5313V32.3126H23.5936V45.5313C23.5936 45.9208 23.4382 46.2944 23.1616 46.5698C22.885 46.8452 22.5098 47 22.1186 47H9.58113C9.18995 47 8.8148 46.8452 8.53819 46.5698C8.26159 46.2944 8.10617 45.9208 8.10613 45.5313V22.0773L11.0561 19.7595V44.0625H20.6436V30.8439C20.6437 30.4544 20.7991 30.0809 21.0757 29.8054C21.3523 29.53 21.7275 29.3752 22.1186 29.3752H36.8686C37.2598 29.3752 37.635 29.53 37.9116 29.8054C38.1882 30.0809 38.3436 30.4544 38.3436 30.8439V44.0625H47.9312V19.7595Z" fill="#BDBDBD"/>
</svg>
