<svg width="19" height="18" viewBox="0 0 19 18" fill="none" xmlns="http://www.w3.org/2000/svg">
<path d="M5.55097 1.5126C6.6348 1.5126 7.66004 1.93613 8.42165 2.72269C8.45095 2.75294 8.48024 2.78319 8.50953 2.81345L9.56407 3.93277L10.6186 2.8437C11.3802 2.05714 12.4055 1.60336 13.4893 1.60336C14.5731 1.60336 15.5984 2.05714 16.3893 2.8437C17.9711 4.47731 17.9711 7.16975 16.3893 8.80336L9.56407 15.8521L3.76411 9.86218L3.79341 9.83193L2.70957 8.77311C2.68028 8.74286 2.65099 8.7126 2.6217 8.68235C1.86009 7.8958 1.44999 6.83697 1.44999 5.71765C1.44999 4.59832 1.88938 3.5395 2.65099 2.72269C3.4126 1.93613 4.43784 1.5126 5.55097 1.5126ZM5.55097 0C4.11562 0 2.70958 0.57479 1.62575 1.69412C-0.541915 3.93277 -0.541915 7.56303 1.62575 9.80168C1.65504 9.83193 1.68433 9.86218 1.71362 9.89244L9.56407 18L17.3852 9.89244C19.5529 7.65378 19.5236 4.02353 17.3852 1.78487C16.3014 0.665547 14.8953 0.0907566 13.46 0.0907566C12.0539 0.0907566 10.6186 0.635294 9.53478 1.75462C9.50548 1.72437 9.47619 1.69412 9.4469 1.66387C8.39236 0.544538 6.95702 0 5.55097 0Z" fill="#BDBDBD"/>
</svg>
