<svg width="18" height="19" viewBox="0 0 18 19" fill="none" xmlns="http://www.w3.org/2000/svg">
<path d="M15.972 18H2.028C1.46133 18 1 17.5105 1 16.9078V2.09225C1 1.49017 1.46133 1 2.028 1H7V1.70833H2.028C1.82867 1.70833 1.66667 1.88046 1.66667 2.09225V16.9078C1.66667 17.1195 1.82867 17.2917 2.028 17.2917H15.972C16.1713 17.2917 16.3333 17.1195 16.3333 16.9078V11.625H17V16.9078C17 17.5105 16.5393 18 15.972 18Z" fill="#BDBDBD"/>
<path d="M7.66667 11.4175L7.19533 10.9167L16.4307 1.10342L17 1.35417V7.63283H16.3333V2.20912L7.66667 11.4175Z" fill="#BDBDBD"/>
<path d="M17 1H10.758V1.70833H17V1Z" fill="#BDBDBD"/>
<path d="M15.972 18H2.028C1.46133 18 1 17.5105 1 16.9078V2.09225C1 1.49017 1.46133 1 2.028 1H7V1.70833H2.028C1.82867 1.70833 1.66667 1.88046 1.66667 2.09225V16.9078C1.66667 17.1195 1.82867 17.2917 2.028 17.2917H15.972C16.1713 17.2917 16.3333 17.1195 16.3333 16.9078V11.625H17V16.9078C17 17.5105 16.5393 18 15.972 18Z" stroke="#BDBDBD" stroke-width="0.5"/>
<path d="M7.66667 11.4175L7.19533 10.9167L16.4307 1.10342L17 1.35417V7.63283H16.3333V2.20912L7.66667 11.4175Z" stroke="#BDBDBD" stroke-width="0.5"/>
<path d="M17 1H10.758V1.70833H17V1Z" stroke="#BDBDBD" stroke-width="0.5"/>
</svg>
