<svg width="29" height="29" viewBox="0 0 29 29" fill="none" xmlns="http://www.w3.org/2000/svg">
<path fill-rule="evenodd" clip-rule="evenodd" d="M14.5004 0C6.50519 0 0 6.50488 0 14.5004C0 22.496 6.50519 29 14.5004 29C22.4957 29 29 22.496 29 14.5004C29 6.50488 22.4957 0 14.5004 0ZM14.5004 1.37762C21.7365 1.37762 27.6229 7.26437 27.6229 14.5004C27.6229 21.7365 21.7365 27.6233 14.5004 27.6233C7.26442 27.6233 1.37707 21.7365 1.37707 14.5004C1.37707 7.26437 7.26442 1.37762 14.5004 1.37762ZM7.9271 8.1295C7.70681 8.14857 7.49914 8.27381 7.38381 8.48175C7.19836 8.81354 7.31864 9.23255 7.65097 9.41749L9.76319 10.5943L7.67249 11.4467C7.32042 11.5904 7.15138 11.9928 7.29505 12.3448C7.40384 12.6119 7.66164 12.7733 7.93338 12.7733C8.01968 12.7733 8.10756 12.7566 8.19248 12.7222L11.6118 11.3275C11.8574 11.2275 12.023 10.9958 12.0386 10.7315C12.0546 10.4671 11.918 10.2173 11.6871 10.0888L8.32068 8.21465C8.19623 8.14513 8.05928 8.11806 7.9271 8.1295ZM20.8775 8.1295C20.7454 8.11806 20.6092 8.14513 20.4848 8.21465L17.1174 10.0888C16.8952 10.2123 16.7592 10.4472 16.7633 10.701C16.7674 10.9548 16.9113 11.1863 17.1371 11.3024L20.5045 13.035C20.605 13.0868 20.7122 13.1112 20.8183 13.1112C21.068 13.1112 21.309 12.9756 21.4315 12.7383C21.6055 12.4001 21.4726 11.9846 21.1348 11.8106L18.9114 10.666L21.1545 9.41749C21.4864 9.23255 21.6057 8.81354 21.4208 8.48175C21.3048 8.27381 21.0976 8.14857 20.8775 8.1295ZM20.8757 16.1774L8.35385 16.2662C7.97562 16.2689 7.6698 16.5764 7.6698 16.9545C7.6698 20.0173 10.1724 22.4166 13.3672 22.4166H15.8721C19.0669 22.4166 21.5696 19.9786 21.5696 16.8658C21.5696 16.6822 21.4969 16.5058 21.3661 16.3764C21.2357 16.247 21.068 16.1751 20.8757 16.1774ZM20.136 17.5595C19.8032 19.559 18.0497 21.0399 15.8721 21.0399H13.3672C11.1515 21.0399 9.42652 19.6191 9.10245 17.6384L20.136 17.5595Z" fill="#BDBDBD"/>
</svg>
