<svg width="56" height="54" viewBox="0 0 56 54" fill="none" xmlns="http://www.w3.org/2000/svg">
<path d="M43.7891 53.4996C43.399 53.4996 43.007 53.4069 42.6486 53.2177L27.9997 45.5165L13.3508 53.2177C12.9924 53.4069 12.6004 53.4996 12.2103 53.4996C11.7019 53.4996 11.1967 53.3415 10.7692 53.0317C10.0145 52.4829 9.63615 51.5533 9.7942 50.6343L12.5917 34.3222L0.740297 22.7695C0.072034 22.118 -0.168142 21.1442 0.119945 20.2563C0.408654 19.369 1.17585 18.7226 2.09922 18.5882L18.4773 16.2082L25.8014 1.36639C26.2145 0.529508 27.0664 0 27.9997 0C28.933 0 29.7848 0.529508 30.198 1.36639L37.5227 16.2082L53.9008 18.5882C54.8242 18.7219 55.5913 19.3684 55.8801 20.2563C56.1681 21.1436 55.928 22.118 55.2597 22.7695L43.4083 34.3216L46.2058 50.6336C46.3638 51.5527 45.9855 52.4823 45.2308 53.0311C44.8033 53.3415 44.2975 53.4996 43.7891 53.4996ZM43.6329 50.8334L40.8759 34.7559C40.7328 33.9227 41.0097 33.0722 41.6151 32.4823L53.2947 21.0969L37.1531 18.7506C36.3163 18.6292 35.5932 18.1041 35.2187 17.3456L27.9997 2.71661L20.7807 17.345C20.4061 18.1034 19.6831 18.6292 18.8462 18.7499L2.70464 21.0969L14.3843 32.4823C14.9897 33.0728 15.266 33.9233 15.1235 34.7559L12.3664 50.8334L26.8044 43.2429C27.1784 43.0457 27.589 42.9474 27.9997 42.9474C28.4104 42.9474 28.821 43.0457 29.195 43.2429L43.6329 50.8334Z" fill="#BDBDBD"/>
</svg>
