<svg width="56" height="60" viewBox="0 0 56 60" fill="none" xmlns="http://www.w3.org/2000/svg">
<path d="M42.6976 28.3279C42.6976 20.1312 36.0788 13.4426 27.9675 13.4426C19.8563 13.4426 13.2375 20.1312 13.2375 28.3279C13.2375 29.5082 13.3673 30.6885 13.6918 31.8689C14.0811 33.7705 14.7949 34.9508 15.7682 36.5902C15.9629 36.9836 16.2225 37.3771 16.482 37.8361C16.8065 38.3607 17.066 38.8853 17.3905 39.3443C18.6883 41.5082 19.467 42.7541 19.467 45.3115V51.4754C19.467 53.0492 20.5701 54.2951 22.0626 54.5574C22.7115 57.9017 24.6582 60 27.9675 60C31.2769 60 33.2885 57.9017 33.8725 54.5574C35.365 54.2951 36.4681 52.9836 36.4681 51.4754V45.3115C36.4681 42.7541 37.2468 41.4426 38.5446 39.3443C38.8042 38.8853 39.1286 38.3607 39.4531 37.8361C39.7126 37.3771 39.9722 36.9836 40.1668 36.5902C41.1402 34.9508 41.854 33.7705 42.2433 31.8689C42.5678 30.6885 42.6976 29.5082 42.6976 28.3279ZM33.9374 46.8852H22.1274V45.3771C22.1274 45.0492 22.1275 44.7869 22.0626 44.5246H33.9374C33.9374 44.7869 33.8725 45.0492 33.8725 45.3771V46.8852H33.9374ZM33.3534 52.0656H22.5817C22.2572 52.0656 22.0626 51.8033 22.0626 51.541V49.5082H33.8725V51.541C33.9374 51.8033 33.6778 52.0656 33.3534 52.0656ZM27.9675 57.4427C27.2538 57.4427 25.4368 57.4426 24.723 54.6885H31.2769C30.5631 57.4426 28.6813 57.4427 27.9675 57.4427ZM39.7126 31.3443C39.3882 32.7869 38.8691 33.7705 37.9606 35.2787C37.701 35.6721 37.5064 36.0656 37.2468 36.5246C36.9223 37.0492 36.6628 37.5738 36.4032 37.9672C35.6246 39.2787 34.9108 40.459 34.4565 41.8361H21.6083C21.1541 40.459 20.5052 39.2787 19.6616 37.9672C19.4021 37.5082 19.0776 37.0492 18.8181 36.5246C18.5585 36.0656 18.2989 35.6066 18.1043 35.2787C17.1958 33.7049 16.6767 32.7869 16.3522 31.2787C16.0927 30.2951 15.9629 29.3115 15.9629 28.3279C15.9629 21.5738 21.4137 16.0656 28.0973 16.0656C34.781 16.0656 40.2318 21.5738 40.2318 28.3279C40.102 29.3115 39.9722 30.2951 39.7126 31.3443Z" fill="#BDBDBD"/>
<path d="M54.7022 27.0164H49.3163C48.6026 27.0164 48.0185 27.6066 48.0185 28.3279C48.0185 29.0492 48.6026 29.6394 49.3163 29.6394H54.7022C55.416 29.6394 56 29.0492 56 28.3279C56 27.6066 55.416 27.0164 54.7022 27.0164Z" fill="#BDBDBD"/>
<path d="M43.022 14.4263C43.3465 14.4263 43.6709 14.2951 43.9305 14.0328L47.759 10.164C48.2781 9.63937 48.2781 8.85249 47.759 8.3279C47.2399 7.80331 46.4612 7.80331 45.9421 8.3279L42.1136 12.1967C41.5944 12.7213 41.5944 13.5082 42.1136 14.0328C42.3731 14.2951 42.6976 14.4263 43.022 14.4263Z" fill="#BDBDBD"/>
<path d="M27.9675 8.06557C28.6813 8.06557 29.2653 7.47541 29.2653 6.75409V1.31148C29.2653 0.590164 28.6813 0 27.9675 0C27.2538 0 26.6697 0.590164 26.6697 1.31148V6.75409C26.6697 7.47541 27.2538 8.06557 27.9675 8.06557Z" fill="#BDBDBD"/>
<path d="M12.0047 14.0328C12.2642 14.2951 12.5886 14.4263 12.9131 14.4263C13.2375 14.4263 13.562 14.2951 13.8216 14.0328C14.3407 13.5082 14.3407 12.7213 13.8216 12.1967L9.99304 8.3279C9.47392 7.80331 8.69525 7.80331 8.17613 8.3279C7.65701 8.85249 7.65701 9.63937 8.17613 10.164L12.0047 14.0328Z" fill="#BDBDBD"/>
<path d="M6.68365 27.0164H1.2978C0.584009 27.0164 0 27.6066 0 28.3279C0 29.0492 0.584009 29.6394 1.2978 29.6394H6.68365C7.39744 29.6394 7.98145 29.0492 7.98145 28.3279C7.98145 27.6066 7.39744 27.0164 6.68365 27.0164Z" fill="#BDBDBD"/>
<path d="M12.0047 42.623L8.17613 46.4918C7.65701 47.0164 7.65701 47.8033 8.17613 48.3279C8.43569 48.5902 8.76016 48.7213 9.08461 48.7213C9.40906 48.7213 9.73348 48.5902 9.99304 48.3279L13.8216 44.4591C14.3407 43.9345 14.3407 43.1476 13.8216 42.623C13.3024 42.0984 12.4589 42.0984 12.0047 42.623Z" fill="#BDBDBD"/>
<path d="M43.9305 42.623C43.4113 42.0984 42.6327 42.0984 42.1136 42.623C41.5944 43.1476 41.5944 43.9345 42.1136 44.4591L45.9421 48.3279C46.2016 48.5902 46.5261 48.7213 46.8505 48.7213C47.175 48.7213 47.4994 48.5902 47.759 48.3279C48.2781 47.8033 48.2781 47.0164 47.759 46.4918L43.9305 42.623Z" fill="#BDBDBD"/>
</svg>
