<svg width="117" height="32" viewBox="0 0 117 32" fill="none" xmlns="http://www.w3.org/2000/svg">
<path d="M1.07812 9.8125C1.07812 9.53906 1.10156 9.30078 1.14844 9.09766C1.19531 8.89453 1.28516 8.72656 1.41797 8.59375C1.55078 8.45312 1.73438 8.34766 1.96875 8.27734C2.20312 8.20703 2.50781 8.17188 2.88281 8.17188H8.10938C8.5625 8.17188 8.90625 8.23828 9.14062 8.37109C9.38281 8.50391 9.55078 8.67188 9.64453 8.875C9.74609 9.07031 9.80078 9.28125 9.80859 9.50781C9.81641 9.72656 9.82031 9.92969 9.82031 10.1172V23.1016C9.82031 23.2812 9.80469 23.4805 9.77344 23.6992C9.74219 23.918 9.66406 24.125 9.53906 24.3203C9.41406 24.5078 9.22266 24.668 8.96484 24.8008C8.70703 24.9336 8.35156 25 7.89844 25H2.88281C2.50781 25 2.20312 24.9648 1.96875 24.8945C1.73438 24.8242 1.55078 24.7227 1.41797 24.5898C1.28516 24.457 1.19531 24.2891 1.14844 24.0859C1.10156 23.8828 1.07812 23.6445 1.07812 23.3711V9.8125ZM8.82422 9.90625C8.82422 9.73438 8.8125 9.59766 8.78906 9.49609C8.76562 9.39453 8.71875 9.32031 8.64844 9.27344C8.57812 9.21875 8.48438 9.1875 8.36719 9.17969C8.25 9.16406 8.09766 9.15625 7.91016 9.15625V24.0156C8.09766 24.0156 8.25 24.0117 8.36719 24.0039C8.48438 23.9883 8.57812 23.957 8.64844 23.9102C8.71875 23.8555 8.76562 23.7812 8.78906 23.6875C8.8125 23.5859 8.82422 23.4453 8.82422 23.2656V9.90625ZM25.4414 8.17188C25.5898 8.17188 25.7227 8.21875 25.8398 8.3125C25.957 8.40625 26.0156 8.58594 26.0156 8.85156V24.1328C26.0156 24.7109 25.7422 25 25.1953 25H21.1289C20.8711 25 20.6562 24.9492 20.4844 24.8477C20.3203 24.7461 20.1719 24.6289 20.0391 24.4961L14.0391 18.2266C14.1094 19.2422 14.1797 20.1758 14.25 21.0273C14.2734 21.3945 14.3008 21.7578 14.332 22.1172C14.3633 22.4766 14.3906 22.8125 14.4141 23.125C14.4375 23.4375 14.457 23.7109 14.4727 23.9453C14.4961 24.1797 14.5117 24.3477 14.5195 24.4492C14.5352 24.582 14.5117 24.707 14.4492 24.8242C14.3945 24.9414 14.2617 25 14.0508 25H12.5742C12.4336 25 12.3008 24.957 12.1758 24.8711C12.0586 24.7773 12 24.5977 12 24.332V9.03906C12 8.46094 12.3203 8.17188 12.9609 8.17188H16.9219C17.2188 8.17188 17.4648 8.23438 17.6602 8.35938C17.8633 8.48438 18.0664 8.64844 18.2695 8.85156L23.9766 14.5117C23.8984 13.582 23.8281 12.7227 23.7656 11.9336C23.7344 11.5977 23.7031 11.2617 23.6719 10.9258C23.6484 10.5898 23.625 10.2773 23.6016 9.98828C23.5781 9.69141 23.5547 9.43359 23.5312 9.21484C23.5156 8.99609 23.5039 8.83203 23.4961 8.72266C23.4805 8.59766 23.5039 8.47656 23.5664 8.35938C23.6367 8.23438 23.793 8.17188 24.0352 8.17188H25.4414ZM17.4609 9.47266C17.3203 9.33203 17.2031 9.24609 17.1094 9.21484C17.0234 9.17578 16.9023 9.15625 16.7461 9.15625H15.9141L23.9766 17.1719V15.9297L17.4609 9.47266ZM31.0078 9.88281C30.5 9.99219 30.0312 10.0898 29.6016 10.1758C29.4141 10.2148 29.2266 10.25 29.0391 10.2812C28.8594 10.3125 28.6875 10.3438 28.5234 10.375C28.3594 10.3984 28.2109 10.418 28.0781 10.4336C27.9531 10.4492 27.8594 10.457 27.7969 10.457C27.6641 10.457 27.5508 10.4336 27.457 10.3867C27.3711 10.332 27.3281 10.2266 27.3281 10.0703V8.75781C27.3281 8.60938 27.3906 8.47656 27.5156 8.35938C27.6406 8.23438 27.8359 8.17188 28.1016 8.17188H42.6445C42.9102 8.17188 43.1055 8.23438 43.2305 8.35938C43.3555 8.47656 43.418 8.60938 43.418 8.75781V10.0703C43.418 10.2266 43.3711 10.332 43.2773 10.3867C43.1914 10.4336 43.082 10.457 42.9492 10.457C42.8789 10.457 42.7812 10.4492 42.6562 10.4336C42.5312 10.418 42.3867 10.3984 42.2227 10.375C42.0586 10.3438 41.8828 10.3125 41.6953 10.2812C41.5156 10.25 41.332 10.2148 41.1445 10.1758C40.7148 10.0898 40.2461 9.99219 39.7383 9.88281V23.3945C39.7383 23.6602 39.7148 23.8945 39.668 24.0977C39.6211 24.293 39.5312 24.4609 39.3984 24.6016C39.2734 24.7344 39.0977 24.8359 38.8711 24.9062C38.6445 24.9688 38.3555 25 38.0039 25H32.7773C32.4102 25 32.1094 24.9648 31.875 24.8945C31.6484 24.8242 31.4688 24.7227 31.3359 24.5898C31.2109 24.457 31.125 24.2891 31.0781 24.0859C31.0312 23.8828 31.0078 23.6445 31.0078 23.3711V9.88281ZM38.7422 9.63672L37.8281 9.4375V24.0156C38.0156 24.0156 38.168 24.0117 38.2852 24.0039C38.4023 23.9883 38.4961 23.957 38.5664 23.9102C38.6367 23.8555 38.6836 23.7812 38.707 23.6875C38.7305 23.5859 38.7422 23.4453 38.7422 23.2656V9.63672ZM53.4844 14.0547V23.5586C54.2422 23.4492 54.9375 23.3516 55.5703 23.2656C55.8359 23.2266 56.1016 23.1914 56.3672 23.1602C56.6406 23.1211 56.8906 23.0859 57.1172 23.0547C57.3438 23.0234 57.5391 23 57.7031 22.9844C57.8672 22.9688 57.9805 22.9609 58.043 22.9609C58.1758 22.9609 58.2891 22.9883 58.3828 23.043C58.4766 23.0898 58.5234 23.1914 58.5234 23.3477V24.4258C58.5234 24.5664 58.4883 24.6992 58.418 24.8242C58.3477 24.9414 58.1797 25 57.9141 25H46.5234C46.1562 25 45.8555 24.9648 45.6211 24.8945C45.3945 24.8242 45.2148 24.7227 45.082 24.5898C44.9492 24.457 44.8594 24.2891 44.8125 24.0859C44.7656 23.8828 44.7422 23.6445 44.7422 23.3711V10.2109C44.7422 9.76562 44.793 9.41016 44.8945 9.14453C44.9961 8.87109 45.1406 8.66406 45.3281 8.52344C45.5156 8.375 45.7383 8.28125 45.9961 8.24219C46.2617 8.19531 46.5547 8.17188 46.875 8.17188H57.4688C57.7344 8.17188 57.9023 8.23438 57.9727 8.35938C58.0508 8.47656 58.0898 8.60938 58.0898 8.75781V9.58984C58.0898 9.74609 58.0469 9.85156 57.9609 9.90625C57.8828 9.95312 57.7773 9.97656 57.6445 9.97656C57.5664 9.97656 57.4453 9.96875 57.2812 9.95312C57.125 9.9375 56.9414 9.91797 56.7305 9.89453C56.5195 9.86328 56.293 9.83203 56.0508 9.80078C55.8086 9.76953 55.5664 9.73438 55.3242 9.69531C54.7617 9.60938 54.1484 9.51172 53.4844 9.40234V12.3789H57.8438C58.0078 12.3789 58.0898 12.4609 58.0898 12.625V13.7969C58.0898 13.9688 58.0078 14.0547 57.8438 14.0547H53.4844ZM52.4883 9.23828L51.5742 9.10938V23.8164L52.4883 23.6992V9.23828ZM70.6992 21.8125C70.4023 21.9766 70.0977 22.1133 69.7852 22.2227C69.4805 22.332 69.1641 22.4219 68.8359 22.4922V23.3711C68.8359 23.6211 68.8086 23.8477 68.7539 24.0508C68.6992 24.2461 68.6016 24.4141 68.4609 24.5547C68.3281 24.6953 68.1484 24.8047 67.9219 24.8828C67.7031 24.9609 67.4258 25 67.0898 25H61.8984C61.5234 25 61.2188 24.9648 60.9844 24.8945C60.75 24.8242 60.5664 24.7227 60.4336 24.5898C60.3008 24.457 60.2109 24.2891 60.1641 24.0859C60.1172 23.8828 60.0938 23.6445 60.0938 23.3711V9.8125C60.0938 9.53906 60.1172 9.30078 60.1641 9.09766C60.2109 8.89453 60.3008 8.72656 60.4336 8.59375C60.5664 8.45312 60.75 8.34766 60.9844 8.27734C61.2188 8.20703 61.5234 8.17188 61.8984 8.17188H67.125C67.6875 8.17188 68.2383 8.21875 68.7773 8.3125C69.3242 8.40625 69.8398 8.55859 70.3242 8.76953C70.8164 8.97266 71.2656 9.24609 71.6719 9.58984C72.0859 9.93359 72.4414 10.3594 72.7383 10.8672C73.043 11.3672 73.2773 11.9531 73.4414 12.625C73.6133 13.2969 73.6992 14.0703 73.6992 14.9453C73.6992 15.6953 73.6523 16.375 73.5586 16.9844C73.4648 17.5938 73.3359 18.1445 73.1719 18.6367C73.0078 19.1289 72.8086 19.5664 72.5742 19.9492C72.3477 20.3242 72.0938 20.6562 71.8125 20.9453L74.1562 24.0391C74.2344 24.1484 74.2734 24.2539 74.2734 24.3555C74.2734 24.4727 74.2305 24.5742 74.1445 24.6602C74.0664 24.7461 73.9805 24.8164 73.8867 24.8711L73.1836 25.2812C73.1289 25.3125 73.0703 25.3359 73.0078 25.3516C72.9531 25.375 72.8945 25.3867 72.832 25.3867C72.7461 25.3867 72.6602 25.3594 72.5742 25.3047C72.4883 25.25 72.4102 25.1562 72.3398 25.0234L70.6992 21.8125ZM72.0469 15.1562C72.0469 14.4531 71.9844 13.8047 71.8594 13.2109C71.7344 12.6172 71.543 12.0938 71.2852 11.6406C71.0273 11.1875 70.6953 10.8125 70.2891 10.5156C69.8828 10.2188 69.3984 10.0156 68.8359 9.90625V20.957C69.3984 20.832 69.8828 20.6055 70.2891 20.2773C70.6953 19.9414 71.0273 19.5234 71.2852 19.0234C71.543 18.5234 71.7344 17.9492 71.8594 17.3008C71.9844 16.6445 72.0469 15.9297 72.0469 15.1562ZM67.8398 9.73047C67.6836 9.72266 67.5195 9.71875 67.3477 9.71875C67.1836 9.71094 67.043 9.70703 66.9258 9.70703V24.0156C67.1133 24.0156 67.2656 24.0117 67.3828 24.0039C67.5 23.9883 67.5938 23.957 67.6641 23.9102C67.7344 23.8555 67.7812 23.7812 67.8047 23.6875C67.8281 23.5859 67.8398 23.4453 67.8398 23.2656V9.73047Z" fill="#FFFFF8"/>
<path d="M77.582 25.1523C78.1445 25.1523 78.4609 24.8945 78.6836 24.1914L80.0312 20.1953H86.0195L87.3672 24.1914C87.5898 24.8828 87.9062 25.1523 88.4688 25.1523C89.0664 25.1523 89.4531 24.8125 89.4531 24.2617C89.4531 24.0391 89.3945 23.793 89.3008 23.5352L84.4844 10.0703C84.1914 9.25 83.7812 8.875 83.0312 8.875C82.2812 8.875 81.8711 9.25 81.5781 10.0703L76.7617 23.5352C76.668 23.8164 76.6094 24.0391 76.6094 24.2734C76.6094 24.8125 76.9961 25.1523 77.582 25.1523ZM80.582 18.543L82.9844 11.418H83.0664L85.4688 18.543H80.582ZM94.0234 23.9922V18.6367H97.9141L100.668 24.0977C101.02 24.7891 101.324 25.0352 101.84 25.0352C102.391 25.0352 102.836 24.6484 102.836 24.1328C102.836 23.875 102.754 23.5586 102.648 23.3359L99.9414 18.1914C101.77 17.5352 102.906 15.8594 102.906 13.7852C102.906 10.8555 100.926 9.00391 97.7734 9.00391H93.9062C92.5234 9.00391 91.9844 9.50781 91.9844 10.7969V23.9922C91.9844 24.6836 92.3594 25.1172 93.0039 25.1172C93.6367 25.1172 94.0234 24.6836 94.0234 23.9922ZM94.0234 16.8555V10.8203H97.5156C99.5898 10.8203 100.809 11.9453 100.809 13.8906C100.809 15.8242 99.625 16.8555 97.4336 16.8555H94.0234ZM110.395 25.1172C111.027 25.1172 111.426 24.6836 111.426 23.9922V10.832H115.363C115.996 10.832 116.406 10.4922 116.406 9.92969C116.406 9.36719 115.996 9.00391 115.363 9.00391H105.449C104.805 9.00391 104.395 9.36719 104.395 9.92969C104.395 10.4922 104.805 10.832 105.449 10.832H109.375V23.9922C109.375 24.6836 109.762 25.1172 110.395 25.1172Z" fill="#FFFFF8"/>
</svg>
